<?xml version="1.0" encoding="UTF-8"?>
<svg xmlns="http://www.w3.org/2000/svg" xmlns:xlink="http://www.w3.org/1999/xlink" width="40px" height="40px" viewBox="0 0 40 40" version="1.1">
<g id="surface1">
<path style=" stroke:none;fill-rule:nonzero;fill:rgb(0%,0%,0%);fill-opacity:1;" d="M 15.714844 19.761719 L 17.25 17.601562 L 12.003906 10.441406 L 0.105469 10.441406 L 0.105469 12.941406 L 10.710938 12.941406 Z M 35.890625 12.941406 L 32.859375 15.660156 C 32.496094 16.007812 32.378906 16.574219 32.742188 16.921875 L 32.957031 17.238281 C 33.324219 17.585938 33.914062 17.585938 34.277344 17.238281 L 39.265625 12.726562 C 39.273438 12.71875 39.28125 12.71875 39.289062 12.710938 L 39.621094 12.394531 C 39.800781 12.21875 39.894531 11.988281 39.890625 11.757812 C 39.894531 11.527344 39.800781 11.296875 39.621094 11.125 L 39.289062 10.808594 C 39.28125 10.800781 39.273438 10.800781 39.265625 10.796875 L 34.199219 6.167969 C 33.832031 5.820312 33.246094 5.820312 32.878906 6.167969 L 32.664062 6.484375 C 32.296875 6.832031 32.417969 7.398438 32.78125 7.746094 L 35.753906 10.441406 L 26.699219 10.441406 L 10.710938 32.941406 L 0.105469 32.941406 L 0.105469 35.441406 L 12 35.441406 L 27.988281 12.941406 Z M 39.289062 33.3125 C 39.285156 33.304688 39.277344 33.300781 39.269531 33.296875 L 34.203125 28.671875 C 33.835938 28.320312 33.246094 28.320312 32.878906 28.671875 L 32.664062 28.984375 C 32.296875 29.332031 32.417969 29.898438 32.78125 30.25 L 35.765625 32.953125 L 27.992188 32.941406 L 23.519531 26.027344 L 21.988281 28.183594 L 26.699219 35.441406 L 35.878906 35.453125 L 32.859375 38.15625 C 32.496094 38.507812 32.378906 39.074219 32.742188 39.421875 L 32.957031 39.738281 C 33.324219 40.085938 33.914062 40.085938 34.277344 39.738281 L 39.265625 35.226562 C 39.273438 35.21875 39.28125 35.21875 39.289062 35.210938 L 39.621094 34.894531 C 39.800781 34.71875 39.894531 34.488281 39.890625 34.257812 C 39.894531 34.03125 39.800781 33.796875 39.621094 33.625 Z M 39.289062 33.3125 "/>
</g>
</svg>
